<svg width="24" height="24" viewBox="0 0 24 24" fill="none" xmlns="http://www.w3.org/2000/svg">
<path d="M3.58333 4.375H8.33333C9.17318 4.375 9.97864 4.70863 10.5725 5.3025C11.1664 5.89636 11.5 6.70181 11.5 7.54167V18.625C11.5 17.9951 11.2498 17.391 10.8044 16.9456C10.359 16.5002 9.75489 16.25 9.125 16.25H3.58333V4.375Z" fill="#FF5A43" stroke="#FF5A43" stroke-width="2" stroke-linecap="round" stroke-linejoin="round"/>
<path d="M19.4167 4.375H14.6667C13.8268 4.375 13.0214 4.70863 12.4275 5.3025C11.8336 5.89636 11.5 6.70181 11.5 7.54167V18.625C11.5 17.9951 11.7502 17.391 12.1956 16.9456C12.641 16.5002 13.2451 16.25 13.875 16.25H19.4167V4.375Z" fill="#FF5A43" stroke="#FF5A43" stroke-width="2" stroke-linecap="round" stroke-linejoin="round"/>
</svg>
